<mxfile host="65bd71144e" pages="2">
    <diagram id="2kaJWZDQHh066NA1y_cF" name="PEME FINAL">
        <mxGraphModel dx="1060" dy="-888" grid="0" gridSize="10" guides="1" tooltips="1" connect="1" arrows="1" fold="1" page="1" pageScale="1" pageWidth="850" pageHeight="1400" math="0" shadow="0">
            <root>
                <mxCell id="0"/>
                <mxCell id="1" parent="0"/>
                <mxCell id="dR-Cl5TtgQKVtdTdkfRB-1" value="PEME" style="swimlane;childLayout=stackLayout;resizeParent=1;resizeParentMax=0;horizontal=0;startSize=20;horizontalStack=0;html=1;fontSize=11;" parent="1" vertex="1">
                    <mxGeometry y="1403" width="1597" height="950" as="geometry"/>
                </mxCell>
                <mxCell id="dR-Cl5TtgQKVtdTdkfRB-2" value="ACN HR" style="swimlane;startSize=20;horizontal=0;html=1;fillColor=#C008FD;fontColor=#FFFFFF;" parent="dR-Cl5TtgQKVtdTdkfRB-1" vertex="1">
                    <mxGeometry x="20" width="1577" height="159" as="geometry"/>
                </mxCell>
                <mxCell id="dR-Cl5TtgQKVtdTdkfRB-3" value="EXCEL&lt;br style=&quot;font-size: 9px;&quot;&gt;&lt;ul style=&quot;font-size: 9px;&quot;&gt;&lt;li style=&quot;text-align: left; font-size: 9px;&quot;&gt;Daily Raw Endorsement Files via email (ACN HR → MG)&lt;/li&gt;&lt;ul style=&quot;font-size: 9px;&quot;&gt;&lt;li style=&quot;text-align: left; font-size: 9px;&quot;&gt;Reply to Sender&lt;/li&gt;&lt;/ul&gt;&lt;/ul&gt;" style="rounded=0;html=1;fontFamily=Helvetica;fontSize=9;spacing=0;verticalAlign=middle;whiteSpace=wrap;strokeWidth=1;" parent="dR-Cl5TtgQKVtdTdkfRB-2" vertex="1">
                    <mxGeometry x="49.75" y="29" width="151" height="83" as="geometry"/>
                </mxCell>
                <mxCell id="dR-Cl5TtgQKVtdTdkfRB-5" value="&lt;div style=&quot;font-size: 9px;&quot;&gt;&lt;div style=&quot;font-size: 9px;&quot;&gt;&lt;div style=&quot;font-size: 9px;&quot;&gt;EXCEL&lt;/div&gt;&lt;div style=&quot;font-size: 9px;&quot;&gt;&lt;ul style=&quot;font-size: 9px;&quot;&gt;&lt;li style=&quot;text-align: left; font-size: 9px;&quot;&gt;For provincial PEME Reimbursements, an excel file is received via email (ACN HR → MG)&lt;/li&gt;&lt;/ul&gt;&lt;/div&gt;&lt;div style=&quot;font-size: 9px;&quot;&gt;&lt;br style=&quot;font-size: 9px;&quot;&gt;&lt;/div&gt;&lt;/div&gt;&lt;/div&gt;" style="rounded=0;whiteSpace=wrap;html=1;fontFamily=Helvetica;fontSize=9;spacing=0;" parent="dR-Cl5TtgQKVtdTdkfRB-2" vertex="1">
                    <mxGeometry x="1393" y="48" width="154" height="93" as="geometry"/>
                </mxCell>
                <mxCell id="YfxdGKV5GeTj8PLtsTex-4" value="&lt;div style=&quot;font-size: 9px;&quot;&gt;&lt;div style=&quot;font-size: 9px;&quot;&gt;WEBSITE&lt;/div&gt;&lt;div style=&quot;font-size: 9px;&quot;&gt;&lt;span style=&quot;text-align: left; background-color: initial;&quot;&gt;PEME Request Form&lt;/span&gt;&lt;/div&gt;&lt;div style=&quot;font-size: 9px;&quot;&gt;&lt;ul style=&quot;font-size: 9px;&quot;&gt;&lt;li style=&quot;text-align: left; font-size: 9px;&quot;&gt;ACN HR fills Request form&lt;/li&gt;&lt;/ul&gt;&lt;/div&gt;&lt;/div&gt;" style="rounded=0;whiteSpace=wrap;html=1;fontFamily=Helvetica;fontSize=9;spacing=0;" parent="dR-Cl5TtgQKVtdTdkfRB-2" vertex="1">
                    <mxGeometry x="1176" y="65" width="166" height="59" as="geometry"/>
                </mxCell>
                <mxCell id="dR-Cl5TtgQKVtdTdkfRB-6" value="MedGrocer" style="swimlane;startSize=20;horizontal=0;html=1;fillColor=#0B6D6D;labelBackgroundColor=none;fontColor=#FFFFFF;" parent="dR-Cl5TtgQKVtdTdkfRB-1" vertex="1">
                    <mxGeometry x="20" y="159" width="1577" height="553" as="geometry"/>
                </mxCell>
                <mxCell id="dR-Cl5TtgQKVtdTdkfRB-7" value="&lt;div style=&quot;font-size: 9px;&quot;&gt;GOOGLE SHEETS&lt;/div&gt;&lt;div style=&quot;font-size: 9px;&quot;&gt;&amp;nbsp;[INTERNAL] ACN PEME Endorsement Dashboard, 01B C&amp;amp;P Tab&lt;/div&gt;&lt;div style=&quot;font-size: 9px;&quot;&gt;&lt;ul style=&quot;font-size: 9px;&quot;&gt;&lt;li style=&quot;text-align: left; font-size: 9px;&quot;&gt;Consolidate Raw Endorsement Files&lt;/li&gt;&lt;/ul&gt;&lt;/div&gt;" style="rounded=0;whiteSpace=wrap;html=1;fontFamily=Helvetica;fontSize=9;spacing=0;" parent="dR-Cl5TtgQKVtdTdkfRB-6" vertex="1">
                    <mxGeometry x="27.75" y="11" width="195" height="75" as="geometry"/>
                </mxCell>
                <mxCell id="dR-Cl5TtgQKVtdTdkfRB-8" value="&lt;div style=&quot;font-size: 9px;&quot;&gt;GOOGLE SHEETS&lt;/div&gt;&lt;div style=&quot;font-size: 9px;&quot;&gt;[LIVE] ACN PEME Endorsement Database, ACN-MG Tab&lt;/div&gt;&lt;div style=&quot;font-size: 9px;&quot;&gt;&lt;ul style=&quot;font-size: 9px;&quot;&gt;&lt;li style=&quot;text-align: left; font-size: 9px;&quot;&gt;Paste “Candidate Last Name” to “Corporate Entity”&lt;/li&gt;&lt;/ul&gt;&lt;/div&gt;" style="rounded=0;whiteSpace=wrap;html=1;fontFamily=Helvetica;fontSize=9;spacing=0;" parent="dR-Cl5TtgQKVtdTdkfRB-6" vertex="1">
                    <mxGeometry x="242.75" y="7" width="171" height="83" as="geometry"/>
                </mxCell>
                <mxCell id="dR-Cl5TtgQKVtdTdkfRB-9" style="edgeStyle=orthogonalEdgeStyle;rounded=0;orthogonalLoop=1;jettySize=auto;html=1;exitX=1;exitY=0.5;exitDx=0;exitDy=0;entryX=0;entryY=0.5;entryDx=0;entryDy=0;fontFamily=Helvetica;fontSize=9;spacing=0;" parent="dR-Cl5TtgQKVtdTdkfRB-6" source="dR-Cl5TtgQKVtdTdkfRB-7" target="dR-Cl5TtgQKVtdTdkfRB-8" edge="1">
                    <mxGeometry relative="1" as="geometry"/>
                </mxCell>
                <mxCell id="dR-Cl5TtgQKVtdTdkfRB-10" value="&lt;div style=&quot;font-size: 9px;&quot;&gt;GOOGLE SHEETS&lt;/div&gt;&lt;div style=&quot;font-size: 9px;&quot;&gt;&amp;nbsp;[INTERNAL] ACN PEME Endorsement Dashboard, 01B C&amp;amp;P Tab&lt;/div&gt;&lt;div style=&quot;font-size: 9px;&quot;&gt;&lt;ul style=&quot;font-size: 9px;&quot;&gt;&lt;li style=&quot;text-align: left; font-size: 9px;&quot;&gt;Sort by Status&lt;/li&gt;&lt;li style=&quot;text-align: left; font-size: 9px;&quot;&gt;&lt;span style=&quot;background-color: initial; font-size: 9px;&quot;&gt;No changes in “Resched” and “New”. For “Prio”, change to preferred date&lt;/span&gt;&lt;/li&gt;&lt;/ul&gt;&lt;/div&gt;" style="rounded=0;whiteSpace=wrap;html=1;fontFamily=Helvetica;fontSize=9;spacing=0;" parent="dR-Cl5TtgQKVtdTdkfRB-6" vertex="1">
                    <mxGeometry x="27.75" y="98.5" width="197" height="96" as="geometry"/>
                </mxCell>
                <mxCell id="dR-Cl5TtgQKVtdTdkfRB-11" style="edgeStyle=orthogonalEdgeStyle;rounded=0;orthogonalLoop=1;jettySize=auto;html=1;exitX=0.5;exitY=1;exitDx=0;exitDy=0;entryX=0.5;entryY=0;entryDx=0;entryDy=0;fontFamily=Helvetica;fontSize=9;spacing=0;" parent="dR-Cl5TtgQKVtdTdkfRB-6" source="dR-Cl5TtgQKVtdTdkfRB-7" target="dR-Cl5TtgQKVtdTdkfRB-10" edge="1">
                    <mxGeometry relative="1" as="geometry"/>
                </mxCell>
                <mxCell id="dR-Cl5TtgQKVtdTdkfRB-12" value="&lt;div style=&quot;font-size: 9px;&quot;&gt;GOOGLE SHEETS&lt;/div&gt;&lt;div style=&quot;font-size: 9px;&quot;&gt;&amp;nbsp;[INTERNAL] ACN PEME Endorsement Dashboard, 01B C&amp;amp;P Tab&lt;/div&gt;&lt;div style=&quot;font-size: 9px;&quot;&gt;&lt;ul style=&quot;font-size: 9px;&quot;&gt;&lt;li style=&quot;text-align: left; font-size: 9px;&quot;&gt;Apply formulas to align with the Endorsement HPD Template&lt;/li&gt;&lt;/ul&gt;&lt;/div&gt;" style="rounded=0;whiteSpace=wrap;html=1;fontFamily=Helvetica;fontSize=9;spacing=0;" parent="dR-Cl5TtgQKVtdTdkfRB-6" vertex="1">
                    <mxGeometry x="30.5" y="210.5" width="191.5" height="80" as="geometry"/>
                </mxCell>
                <mxCell id="dR-Cl5TtgQKVtdTdkfRB-13" style="edgeStyle=orthogonalEdgeStyle;rounded=0;orthogonalLoop=1;jettySize=auto;html=1;exitX=0.5;exitY=1;exitDx=0;exitDy=0;entryX=0.5;entryY=0;entryDx=0;entryDy=0;fontFamily=Helvetica;fontSize=9;spacing=0;" parent="dR-Cl5TtgQKVtdTdkfRB-6" source="dR-Cl5TtgQKVtdTdkfRB-10" target="dR-Cl5TtgQKVtdTdkfRB-12" edge="1">
                    <mxGeometry relative="1" as="geometry"/>
                </mxCell>
                <mxCell id="dR-Cl5TtgQKVtdTdkfRB-14" value="&lt;div style=&quot;font-size: 9px;&quot;&gt;GOOGLE SHEETS&lt;/div&gt;&lt;div style=&quot;font-size: 9px;&quot;&gt;[INTERNAL] ACN PEME Endorsement Dashboard, 02B C&amp;amp;P Tab&lt;/div&gt;&lt;div style=&quot;font-size: 9px;&quot;&gt;&lt;ul style=&quot;font-size: 9px;&quot;&gt;&lt;li style=&quot;text-align: left; font-size: 9px;&quot;&gt;Translated Consolidated Endorsement Files&lt;/li&gt;&lt;/ul&gt;&lt;/div&gt;" style="rounded=0;whiteSpace=wrap;html=1;fontFamily=Helvetica;fontSize=9;spacing=0;" parent="dR-Cl5TtgQKVtdTdkfRB-6" vertex="1">
                    <mxGeometry x="27.75" y="306.5" width="197" height="82" as="geometry"/>
                </mxCell>
                <mxCell id="dR-Cl5TtgQKVtdTdkfRB-15" style="edgeStyle=orthogonalEdgeStyle;rounded=0;orthogonalLoop=1;jettySize=auto;html=1;exitX=0.5;exitY=1;exitDx=0;exitDy=0;entryX=0.5;entryY=0;entryDx=0;entryDy=0;fontFamily=Helvetica;fontSize=9;spacing=0;" parent="dR-Cl5TtgQKVtdTdkfRB-6" source="dR-Cl5TtgQKVtdTdkfRB-12" target="dR-Cl5TtgQKVtdTdkfRB-14" edge="1">
                    <mxGeometry relative="1" as="geometry"/>
                </mxCell>
                <mxCell id="dR-Cl5TtgQKVtdTdkfRB-16" value="&lt;div style=&quot;font-size: 9px;&quot;&gt;GOOGLE SHEETS&lt;/div&gt;&lt;div style=&quot;font-size: 9px;&quot;&gt;[LIVE] ACN PEME Endorsement Database, MG-HPD Tab&lt;/div&gt;&lt;div style=&quot;font-size: 9px;&quot;&gt;&lt;ul style=&quot;font-size: 9px;&quot;&gt;&lt;li style=&quot;text-align: left; font-size: 9px;&quot;&gt;Paste all from column C&lt;/li&gt;&lt;/ul&gt;&lt;/div&gt;" style="rounded=0;whiteSpace=wrap;html=1;fontFamily=Helvetica;fontSize=9;spacing=0;" parent="dR-Cl5TtgQKVtdTdkfRB-6" vertex="1">
                    <mxGeometry x="246.75" y="311.5" width="159" height="72" as="geometry"/>
                </mxCell>
                <mxCell id="dR-Cl5TtgQKVtdTdkfRB-17" style="edgeStyle=orthogonalEdgeStyle;rounded=0;orthogonalLoop=1;jettySize=auto;html=1;exitX=1;exitY=0.5;exitDx=0;exitDy=0;entryX=0;entryY=0.5;entryDx=0;entryDy=0;fontFamily=Helvetica;fontSize=9;spacing=0;" parent="dR-Cl5TtgQKVtdTdkfRB-6" source="dR-Cl5TtgQKVtdTdkfRB-14" target="dR-Cl5TtgQKVtdTdkfRB-16" edge="1">
                    <mxGeometry relative="1" as="geometry"/>
                </mxCell>
                <mxCell id="dR-Cl5TtgQKVtdTdkfRB-18" value="&lt;div style=&quot;font-size: 9px;&quot;&gt;&lt;div style=&quot;font-size: 9px;&quot;&gt;&lt;span style=&quot;background-color: initial;&quot;&gt;HPD LOA PORTAL&lt;/span&gt;&lt;/div&gt;&lt;div style=&quot;font-size: 9px;&quot;&gt;&lt;ul style=&quot;font-size: 9px;&quot;&gt;&lt;li style=&quot;text-align: left; font-size: 9px;&quot;&gt;Login the MG account&lt;/li&gt;&lt;li style=&quot;text-align: left; font-size: 9px;&quot;&gt;Download Excel template and paste&lt;/li&gt;&lt;li style=&quot;text-align: left; font-size: 9px;&quot;&gt;Format Date in Excel Template&lt;/li&gt;&lt;li style=&quot;text-align: left; font-size: 9px;&quot;&gt;Save as&amp;nbsp; “ACN PEME Endorsements &amp;lt;yymmdd&amp;gt; &amp;lt;hmm am/pm&amp;gt;”&lt;/li&gt;&lt;li style=&quot;text-align: left; font-size: 9px;&quot;&gt;Upload Multiple Endorsement&lt;/li&gt;&lt;li style=&quot;text-align: left; font-size: 9px;&quot;&gt;If there’s a !, edit and change date&lt;/li&gt;&lt;/ul&gt;&lt;/div&gt;&lt;/div&gt;" style="rounded=0;whiteSpace=wrap;html=1;fontFamily=Helvetica;fontSize=9;spacing=0;" parent="dR-Cl5TtgQKVtdTdkfRB-6" vertex="1">
                    <mxGeometry x="25" y="404.5" width="196.75" height="122" as="geometry"/>
                </mxCell>
                <mxCell id="dR-Cl5TtgQKVtdTdkfRB-19" style="edgeStyle=orthogonalEdgeStyle;rounded=0;orthogonalLoop=1;jettySize=auto;html=1;exitX=0.5;exitY=1;exitDx=0;exitDy=0;entryX=0.5;entryY=0;entryDx=0;entryDy=0;fontFamily=Helvetica;fontSize=9;" parent="dR-Cl5TtgQKVtdTdkfRB-6" source="dR-Cl5TtgQKVtdTdkfRB-14" target="dR-Cl5TtgQKVtdTdkfRB-18" edge="1">
                    <mxGeometry relative="1" as="geometry"/>
                </mxCell>
                <mxCell id="dR-Cl5TtgQKVtdTdkfRB-20" style="edgeStyle=orthogonalEdgeStyle;rounded=0;orthogonalLoop=1;jettySize=auto;html=1;exitX=0.5;exitY=0;exitDx=0;exitDy=0;entryX=0.5;entryY=1;entryDx=0;entryDy=0;" parent="dR-Cl5TtgQKVtdTdkfRB-6" source="dR-Cl5TtgQKVtdTdkfRB-21" target="dR-Cl5TtgQKVtdTdkfRB-38" edge="1">
                    <mxGeometry relative="1" as="geometry"/>
                </mxCell>
                <mxCell id="dR-Cl5TtgQKVtdTdkfRB-21" value="&lt;div style=&quot;font-size: 9px;&quot;&gt;&lt;p style=&quot;--font-size: 10px; --line-height: 1.4; line-height: 14px; font-size: 9px;&quot; class=&quot;cvGsUA direction-ltr align-center para-style-body&quot;&gt;HPD MM&lt;/p&gt;&lt;p style=&quot;--font-size: 10px; --line-height: 1.4; line-height: 14px; font-size: 9px;&quot; class=&quot;cvGsUA direction-ltr align-center para-style-body&quot;&gt;&lt;/p&gt;&lt;ul style=&quot;font-size: 9px;&quot;&gt;&lt;li style=&quot;text-align: left; font-size: 9px;&quot;&gt;Log in using MM credentials&lt;/li&gt;&lt;li style=&quot;text-align: left; font-size: 9px;&quot;&gt;Change date filters&lt;/li&gt;&lt;li style=&quot;text-align: left; font-size: 9px;&quot;&gt;ACN MM PEME RESULTS SUMMARY&lt;/li&gt;&lt;/ul&gt;&lt;p style=&quot;font-size: 9px;&quot;&gt;&lt;/p&gt;&lt;p style=&quot;font-size: 9px;&quot;&gt;&lt;/p&gt;&lt;/div&gt;" style="rounded=0;whiteSpace=wrap;html=1;fontFamily=Helvetica;fontSize=9;spacing=0;" parent="dR-Cl5TtgQKVtdTdkfRB-6" vertex="1">
                    <mxGeometry x="419" y="305.5" width="160" height="78" as="geometry"/>
                </mxCell>
                <mxCell id="dR-Cl5TtgQKVtdTdkfRB-22" style="edgeStyle=orthogonalEdgeStyle;rounded=0;orthogonalLoop=1;jettySize=auto;html=1;exitX=0.5;exitY=0;exitDx=0;exitDy=0;entryX=0.5;entryY=1;entryDx=0;entryDy=0;" parent="dR-Cl5TtgQKVtdTdkfRB-6" source="dR-Cl5TtgQKVtdTdkfRB-23" target="dR-Cl5TtgQKVtdTdkfRB-38" edge="1">
                    <mxGeometry relative="1" as="geometry"/>
                </mxCell>
                <mxCell id="dR-Cl5TtgQKVtdTdkfRB-23" value="&lt;div style=&quot;font-size: 9px;&quot;&gt;&lt;p style=&quot;--font-size: 10px; --line-height: 1.4; line-height: 14px; font-size: 9px;&quot; class=&quot;cvGsUA direction-ltr align-center para-style-body&quot;&gt;HPD Cebu&lt;/p&gt;&lt;p style=&quot;--font-size: 10px; --line-height: 1.4; line-height: 14px; font-size: 9px;&quot; class=&quot;cvGsUA direction-ltr align-center para-style-body&quot;&gt;&lt;/p&gt;&lt;ul style=&quot;font-size: 9px;&quot;&gt;&lt;li style=&quot;text-align: left; font-size: 9px;&quot;&gt;Log in using Cebu credentials&lt;/li&gt;&lt;li style=&quot;text-align: left; font-size: 9px;&quot;&gt;Change date filters&lt;/li&gt;&lt;li style=&quot;text-align: left; font-size: 9px;&quot;&gt;ACN CEBU PEME RESULTS SUMMARY&lt;/li&gt;&lt;/ul&gt;&lt;p style=&quot;font-size: 9px;&quot;&gt;&lt;/p&gt;&lt;p style=&quot;font-size: 9px;&quot;&gt;&lt;/p&gt;&lt;/div&gt;" style="rounded=0;whiteSpace=wrap;html=1;fontFamily=Helvetica;fontSize=9;spacing=0;" parent="dR-Cl5TtgQKVtdTdkfRB-6" vertex="1">
                    <mxGeometry x="590" y="305.5" width="164" height="78" as="geometry"/>
                </mxCell>
                <mxCell id="dR-Cl5TtgQKVtdTdkfRB-24" style="edgeStyle=orthogonalEdgeStyle;rounded=0;orthogonalLoop=1;jettySize=auto;html=1;exitX=1;exitY=0.5;exitDx=0;exitDy=0;entryX=0;entryY=0.5;entryDx=0;entryDy=0;" parent="dR-Cl5TtgQKVtdTdkfRB-6" source="dR-Cl5TtgQKVtdTdkfRB-25" target="dR-Cl5TtgQKVtdTdkfRB-45" edge="1">
                    <mxGeometry relative="1" as="geometry"/>
                </mxCell>
                <mxCell id="YfxdGKV5GeTj8PLtsTex-9" style="edgeStyle=orthogonalEdgeStyle;rounded=0;orthogonalLoop=1;jettySize=auto;html=1;exitX=0.5;exitY=0;exitDx=0;exitDy=0;entryX=0.5;entryY=1;entryDx=0;entryDy=0;" parent="dR-Cl5TtgQKVtdTdkfRB-6" source="dR-Cl5TtgQKVtdTdkfRB-25" target="YfxdGKV5GeTj8PLtsTex-8" edge="1">
                    <mxGeometry relative="1" as="geometry"/>
                </mxCell>
                <mxCell id="dR-Cl5TtgQKVtdTdkfRB-25" value="&lt;div style=&quot;font-size: 9px;&quot;&gt;&lt;div style=&quot;font-size: 9px;&quot;&gt;&lt;div style=&quot;font-size: 9px;&quot;&gt;GOOGLE SHEETS&lt;/div&gt;&lt;div style=&quot;font-size: 9px;&quot;&gt;&amp;nbsp;[INTERNAL] ACN PEME Results Dashboard, A[1] Action Logs Sheet&lt;/div&gt;&lt;div style=&quot;font-size: 9px;&quot;&gt;&lt;ul style=&quot;font-size: 9px;&quot;&gt;&lt;li style=&quot;text-align: left; font-size: 9px;&quot;&gt;Call Pending Candidates&lt;/li&gt;&lt;li style=&quot;text-align: left; font-size: 9px;&quot;&gt;Log the call (name, date &amp;amp; time, call notes)&lt;/li&gt;&lt;li style=&quot;text-align: left; font-size: 9px;&quot;&gt;Send Clearance Submission link (mdgr.cr/acpemeupload)&lt;/li&gt;&lt;li style=&quot;text-align: left; font-size: 9px;&quot;&gt;If copy of results is needed for doctor consultation, instruct to email accenture.peme@medgrocer.com&lt;/li&gt;&lt;li style=&quot;text-align: left; font-size: 9px;&quot;&gt;Deadline is 2 days after initial call but considerations are given&lt;/li&gt;&lt;/ul&gt;&lt;/div&gt;&lt;/div&gt;&lt;/div&gt;" style="rounded=0;whiteSpace=wrap;html=1;fontFamily=Helvetica;fontSize=9;spacing=0;" parent="dR-Cl5TtgQKVtdTdkfRB-6" vertex="1">
                    <mxGeometry x="955" y="277" width="192" height="174.5" as="geometry"/>
                </mxCell>
                <mxCell id="dR-Cl5TtgQKVtdTdkfRB-27" value="&lt;div style=&quot;font-size: 9px;&quot;&gt;&lt;div style=&quot;font-size: 9px;&quot;&gt;&lt;div style=&quot;font-size: 9px;&quot;&gt;AIRTABLE&lt;/div&gt;&lt;div style=&quot;font-size: 9px;&quot;&gt;ACN PEME Results Database&lt;/div&gt;&lt;div style=&quot;font-size: 9px;&quot;&gt;Categorize Patients View&lt;/div&gt;&lt;div style=&quot;font-size: 9px;&quot;&gt;&lt;ul style=&quot;font-size: 9px;&quot;&gt;&lt;li style=&quot;text-align: left; font-size: 9px;&quot;&gt;Update “[MG] Category” and “[MG] Work Arrangements”&lt;/li&gt;&lt;/ul&gt;&lt;/div&gt;&lt;/div&gt;&lt;/div&gt;" style="rounded=0;whiteSpace=wrap;html=1;fontFamily=Helvetica;fontSize=9;spacing=0;" parent="dR-Cl5TtgQKVtdTdkfRB-6" vertex="1">
                    <mxGeometry x="937" y="11" width="126" height="102" as="geometry"/>
                </mxCell>
                <mxCell id="dR-Cl5TtgQKVtdTdkfRB-29" value="&lt;div style=&quot;font-size: 9px;&quot;&gt;&lt;div style=&quot;font-size: 9px;&quot;&gt;&lt;div style=&quot;font-size: 9px;&quot;&gt;&lt;div style=&quot;border-color: var(--border-color);&quot;&gt;GOOGLE SHEETS&lt;/div&gt;&lt;div style=&quot;border-color: var(--border-color);&quot;&gt;&amp;nbsp;ACN PEME Results Dashboard&lt;/div&gt;&lt;/div&gt;&lt;div style=&quot;font-size: 9px;&quot;&gt;&lt;ul&gt;&lt;li style=&quot;text-align: left;&quot;&gt;&lt;span style=&quot;background-color: initial;&quot;&gt;Copy and paste in the shared PEME Results Google sheet with ACN&lt;/span&gt;&lt;/li&gt;&lt;/ul&gt;&lt;/div&gt;&lt;/div&gt;&lt;/div&gt;" style="rounded=0;whiteSpace=wrap;html=1;fontFamily=Helvetica;fontSize=9;spacing=0;" parent="dR-Cl5TtgQKVtdTdkfRB-6" vertex="1">
                    <mxGeometry x="951" y="472" width="200" height="67" as="geometry"/>
                </mxCell>
                <mxCell id="dR-Cl5TtgQKVtdTdkfRB-30" style="edgeStyle=orthogonalEdgeStyle;rounded=0;orthogonalLoop=1;jettySize=auto;html=1;exitX=0.5;exitY=1;exitDx=0;exitDy=0;entryX=0.5;entryY=0;entryDx=0;entryDy=0;" parent="dR-Cl5TtgQKVtdTdkfRB-6" source="dR-Cl5TtgQKVtdTdkfRB-25" target="dR-Cl5TtgQKVtdTdkfRB-29" edge="1">
                    <mxGeometry relative="1" as="geometry"/>
                </mxCell>
                <mxCell id="dR-Cl5TtgQKVtdTdkfRB-32" style="edgeStyle=orthogonalEdgeStyle;rounded=0;orthogonalLoop=1;jettySize=auto;html=1;exitX=0;exitY=0.5;exitDx=0;exitDy=0;entryX=1;entryY=0.5;entryDx=0;entryDy=0;" parent="dR-Cl5TtgQKVtdTdkfRB-6" source="dR-Cl5TtgQKVtdTdkfRB-35" target="dR-Cl5TtgQKVtdTdkfRB-36" edge="1">
                    <mxGeometry relative="1" as="geometry"/>
                </mxCell>
                <mxCell id="dR-Cl5TtgQKVtdTdkfRB-33" style="edgeStyle=orthogonalEdgeStyle;rounded=0;orthogonalLoop=1;jettySize=auto;html=1;exitX=0.5;exitY=0;exitDx=0;exitDy=0;entryX=0.5;entryY=1;entryDx=0;entryDy=0;" parent="dR-Cl5TtgQKVtdTdkfRB-6" source="dR-Cl5TtgQKVtdTdkfRB-35" target="dR-Cl5TtgQKVtdTdkfRB-21" edge="1">
                    <mxGeometry relative="1" as="geometry"/>
                </mxCell>
                <mxCell id="dR-Cl5TtgQKVtdTdkfRB-34" style="edgeStyle=orthogonalEdgeStyle;rounded=0;orthogonalLoop=1;jettySize=auto;html=1;exitX=0.5;exitY=0;exitDx=0;exitDy=0;entryX=0.5;entryY=1;entryDx=0;entryDy=0;" parent="dR-Cl5TtgQKVtdTdkfRB-6" source="dR-Cl5TtgQKVtdTdkfRB-35" target="dR-Cl5TtgQKVtdTdkfRB-23" edge="1">
                    <mxGeometry relative="1" as="geometry"/>
                </mxCell>
                <mxCell id="dR-Cl5TtgQKVtdTdkfRB-35" value="&lt;div style=&quot;font-size: 9px;&quot;&gt;&lt;p style=&quot;--font-size: 10px; --line-height: 1.4; line-height: 14px; font-size: 9px;&quot; class=&quot;cvGsUA direction-ltr align-center para-style-body&quot;&gt;HPD ONLINE CORP RESULTS PORTAL&amp;nbsp;&lt;/p&gt;&lt;p style=&quot;--font-size: 10px; --line-height: 1.4; line-height: 14px; font-size: 9px;&quot; class=&quot;cvGsUA direction-ltr align-center para-style-body&quot;&gt;&lt;/p&gt;&lt;ul style=&quot;font-size: 9px;&quot;&gt;&lt;li style=&quot;text-align: left; font-size: 9px;&quot;&gt;24-48hrs from booked PEME&lt;/li&gt;&lt;li style=&quot;text-align: left; font-size: 9px;&quot;&gt;Only MG has access&lt;/li&gt;&lt;li style=&quot;text-align: left; font-size: 9px;&quot;&gt;HPD MM&amp;nbsp;&lt;/li&gt;&lt;li style=&quot;text-align: left; font-size: 9px;&quot;&gt;HPD Cebu&lt;/li&gt;&lt;/ul&gt;&lt;p style=&quot;font-size: 9px;&quot;&gt;&lt;/p&gt;&lt;/div&gt;" style="rounded=0;whiteSpace=wrap;html=1;fontFamily=Helvetica;fontSize=9;spacing=0;" parent="dR-Cl5TtgQKVtdTdkfRB-6" vertex="1">
                    <mxGeometry x="492" y="424" width="181" height="80" as="geometry"/>
                </mxCell>
                <mxCell id="dR-Cl5TtgQKVtdTdkfRB-36" value="&lt;div style=&quot;font-size: 9px;&quot;&gt;&lt;div style=&quot;font-size: 9px;&quot;&gt;&lt;div style=&quot;font-size: 9px;&quot;&gt;GOOGLE SHEETS&lt;/div&gt;&lt;div style=&quot;font-size: 9px;&quot;&gt;[INTERNAL] ACN PEME Results Dashboard,&lt;/div&gt;&lt;div style=&quot;font-size: 9px;&quot;&gt;Raw-HPD Summary Extraction&lt;/div&gt;&lt;div style=&quot;font-size: 9px;&quot;&gt;&lt;ul style=&quot;font-size: 9px;&quot;&gt;&lt;li style=&quot;text-align: left; font-size: 9px;&quot;&gt;Paste summary result excel file extracted&amp;nbsp;&lt;/li&gt;&lt;/ul&gt;&lt;/div&gt;&lt;/div&gt;&lt;/div&gt;" style="rounded=0;whiteSpace=wrap;html=1;fontFamily=Helvetica;fontSize=9;spacing=0;" parent="dR-Cl5TtgQKVtdTdkfRB-6" vertex="1">
                    <mxGeometry x="323" y="411.5" width="129" height="105" as="geometry"/>
                </mxCell>
                <mxCell id="dR-Cl5TtgQKVtdTdkfRB-37" style="edgeStyle=orthogonalEdgeStyle;rounded=0;orthogonalLoop=1;jettySize=auto;html=1;exitX=0.5;exitY=0;exitDx=0;exitDy=0;entryX=0.5;entryY=1;entryDx=0;entryDy=0;" parent="dR-Cl5TtgQKVtdTdkfRB-6" source="dR-Cl5TtgQKVtdTdkfRB-38" target="dR-Cl5TtgQKVtdTdkfRB-40" edge="1">
                    <mxGeometry relative="1" as="geometry"/>
                </mxCell>
                <mxCell id="dR-Cl5TtgQKVtdTdkfRB-38" value="&lt;div style=&quot;font-size: 9px;&quot;&gt;&lt;div style=&quot;font-size: 9px;&quot;&gt;GOOGLE SHEETS&lt;/div&gt;&lt;div style=&quot;font-size: 9px;&quot;&gt;[INTERNAL] ACN PEME Results Database&lt;/div&gt;&lt;div style=&quot;font-size: 9px;&quot;&gt;&lt;ul style=&quot;font-size: 9px;&quot;&gt;&lt;li style=&quot;text-align: left; font-size: 9px;&quot;&gt;Consolidate HPD Cebu and HPD MM&lt;/li&gt;&lt;/ul&gt;&lt;/div&gt;&lt;/div&gt;" style="rounded=0;whiteSpace=wrap;html=1;fontFamily=Helvetica;fontSize=9;spacing=0;" parent="dR-Cl5TtgQKVtdTdkfRB-6" vertex="1">
                    <mxGeometry x="491.5" y="210.5" width="193" height="59" as="geometry"/>
                </mxCell>
                <mxCell id="dR-Cl5TtgQKVtdTdkfRB-39" style="edgeStyle=orthogonalEdgeStyle;rounded=0;orthogonalLoop=1;jettySize=auto;html=1;exitX=0.5;exitY=0;exitDx=0;exitDy=0;entryX=0.5;entryY=1;entryDx=0;entryDy=0;" parent="dR-Cl5TtgQKVtdTdkfRB-6" source="dR-Cl5TtgQKVtdTdkfRB-40" target="dR-Cl5TtgQKVtdTdkfRB-42" edge="1">
                    <mxGeometry relative="1" as="geometry"/>
                </mxCell>
                <mxCell id="dR-Cl5TtgQKVtdTdkfRB-40" value="&lt;div style=&quot;font-size: 9px;&quot;&gt;&lt;div style=&quot;font-size: 9px;&quot;&gt;&lt;div style=&quot;font-size: 9px;&quot;&gt;GOOGLE SHEETS&lt;/div&gt;&lt;div style=&quot;font-size: 9px;&quot;&gt;[INTERNAL] ACN PEME Results Database, Class Pending sheet&lt;/div&gt;&lt;div style=&quot;font-size: 9px;&quot;&gt;&lt;ul style=&quot;font-size: 9px;&quot;&gt;&lt;li style=&quot;text-align: left; font-size: 9px;&quot;&gt;Filter Last Update “N/A”&lt;/li&gt;&lt;li style=&quot;text-align: left; font-size: 9px;&quot;&gt;Check pending for tagging&lt;/li&gt;&lt;/ul&gt;&lt;/div&gt;&lt;/div&gt;&lt;/div&gt;" style="rounded=0;whiteSpace=wrap;html=1;fontFamily=Helvetica;fontSize=9;spacing=0;" parent="dR-Cl5TtgQKVtdTdkfRB-6" vertex="1">
                    <mxGeometry x="495" y="108" width="186" height="82" as="geometry"/>
                </mxCell>
                <mxCell id="-U7IyQH0r49yZ2UrgW1W-5" style="edgeStyle=orthogonalEdgeStyle;rounded=0;orthogonalLoop=1;jettySize=auto;html=1;exitX=1;exitY=0.5;exitDx=0;exitDy=0;entryX=0;entryY=0.5;entryDx=0;entryDy=0;" parent="dR-Cl5TtgQKVtdTdkfRB-6" source="dR-Cl5TtgQKVtdTdkfRB-42" target="-U7IyQH0r49yZ2UrgW1W-2" edge="1">
                    <mxGeometry relative="1" as="geometry"/>
                </mxCell>
                <mxCell id="dR-Cl5TtgQKVtdTdkfRB-42" value="&lt;div style=&quot;font-size: 9px;&quot;&gt;&lt;div style=&quot;font-size: 9px;&quot;&gt;&lt;div style=&quot;font-size: 9px;&quot;&gt;HPD ONLINE RESULTS PORTAL&lt;/div&gt;&lt;div style=&quot;font-size: 9px;&quot;&gt;&lt;ul style=&quot;font-size: 9px;&quot;&gt;&lt;li style=&quot;text-align: left; font-size: 9px;&quot;&gt;Log in using MG credentials&lt;/li&gt;&lt;li style=&quot;text-align: left; font-size: 9px;&quot;&gt;Input name of pending candidate&amp;nbsp;&lt;/li&gt;&lt;li style=&quot;text-align: left; font-size: 9px;&quot;&gt;Download medical file&lt;/li&gt;&lt;li style=&quot;text-align: left; font-size: 9px;&quot;&gt;Read through file&lt;/li&gt;&lt;/ul&gt;&lt;/div&gt;&lt;/div&gt;&lt;/div&gt;" style="rounded=0;whiteSpace=wrap;html=1;fontFamily=Helvetica;fontSize=9;spacing=0;" parent="dR-Cl5TtgQKVtdTdkfRB-6" vertex="1">
                    <mxGeometry x="491.5" y="13" width="189.5" height="82" as="geometry"/>
                </mxCell>
                <mxCell id="YfxdGKV5GeTj8PLtsTex-1" style="edgeStyle=orthogonalEdgeStyle;rounded=0;orthogonalLoop=1;jettySize=auto;html=1;exitX=0.5;exitY=1;exitDx=0;exitDy=0;entryX=0;entryY=0.5;entryDx=0;entryDy=0;" parent="dR-Cl5TtgQKVtdTdkfRB-6" source="dR-Cl5TtgQKVtdTdkfRB-44" target="dR-Cl5TtgQKVtdTdkfRB-25" edge="1">
                    <mxGeometry relative="1" as="geometry"/>
                </mxCell>
                <mxCell id="dR-Cl5TtgQKVtdTdkfRB-44" value="&lt;div style=&quot;font-size: 9px;&quot;&gt;&lt;div style=&quot;font-size: 9px;&quot;&gt;&lt;div style=&quot;font-size: 9px;&quot;&gt;GOOGLE SHEETS&lt;/div&gt;&lt;div style=&quot;font-size: 9px;&quot;&gt;[INTERNAL] ACN PEME Results Dashboard&lt;/div&gt;&lt;div style=&quot;font-size: 9px;&quot;&gt;&lt;ul style=&quot;font-size: 9px;&quot;&gt;&lt;li style=&quot;text-align: left; font-size: 9px;&quot;&gt;&lt;span style=&quot;background-color: initial;&quot;&gt;Input name and notes in Class pending sheet&lt;/span&gt;&lt;br&gt;&lt;/li&gt;&lt;/ul&gt;&lt;/div&gt;&lt;/div&gt;&lt;/div&gt;" style="rounded=0;whiteSpace=wrap;html=1;fontFamily=Helvetica;fontSize=9;spacing=0;" parent="dR-Cl5TtgQKVtdTdkfRB-6" vertex="1">
                    <mxGeometry x="789" y="221.5" width="142" height="95" as="geometry"/>
                </mxCell>
                <mxCell id="dR-Cl5TtgQKVtdTdkfRB-45" value="&lt;div style=&quot;font-size: 9px;&quot;&gt;&lt;div style=&quot;font-size: 9px;&quot;&gt;&lt;div style=&quot;font-size: 9px;&quot;&gt;&lt;ul style=&quot;font-size: 9px;&quot;&gt;&lt;li style=&quot;font-size: 9px;&quot;&gt;Call pending candidates in phases (every other day)&lt;/li&gt;&lt;li style=&quot;font-size: 9px;&quot;&gt;Maximum of 3 calls&lt;/li&gt;&lt;li style=&quot;font-size: 9px;&quot;&gt;If unresponsive, compile the list of candidates, inform ACN and allow them to manage the situation&lt;/li&gt;&lt;/ul&gt;&lt;/div&gt;&lt;/div&gt;&lt;/div&gt;" style="rounded=0;whiteSpace=wrap;html=1;fontFamily=Helvetica;fontSize=9;spacing=0;align=left;" parent="dR-Cl5TtgQKVtdTdkfRB-6" vertex="1">
                    <mxGeometry x="1165" y="319.25" width="185" height="90" as="geometry"/>
                </mxCell>
                <mxCell id="TtrFDmk4WdQ_fgC15SkU-2" style="edgeStyle=orthogonalEdgeStyle;rounded=0;orthogonalLoop=1;jettySize=auto;html=1;exitX=0.5;exitY=1;exitDx=0;exitDy=0;" parent="dR-Cl5TtgQKVtdTdkfRB-6" source="dR-Cl5TtgQKVtdTdkfRB-46" target="dR-Cl5TtgQKVtdTdkfRB-49" edge="1">
                    <mxGeometry relative="1" as="geometry"/>
                </mxCell>
                <mxCell id="dR-Cl5TtgQKVtdTdkfRB-46" value="&lt;div style=&quot;font-size: 9px;&quot;&gt;&lt;div style=&quot;font-size: 9px;&quot;&gt;&lt;div style=&quot;font-size: 9px;&quot;&gt;AIRTABLE&lt;/div&gt;&lt;div style=&quot;font-size: 9px;&quot;&gt;ACN PEME Results Database, Reimbursement Results Extractor tab&lt;/div&gt;&lt;div style=&quot;font-size: 9px;&quot;&gt;&lt;ul style=&quot;font-size: 9px;&quot;&gt;&lt;li style=&quot;text-align: left; font-size: 9px;&quot;&gt;Download CSV file of results&lt;/li&gt;&lt;/ul&gt;&lt;/div&gt;&lt;/div&gt;&lt;/div&gt;" style="rounded=0;whiteSpace=wrap;html=1;fontFamily=Helvetica;fontSize=9;spacing=0;" parent="dR-Cl5TtgQKVtdTdkfRB-6" vertex="1">
                    <mxGeometry x="1389" y="144.5" width="162" height="71" as="geometry"/>
                </mxCell>
                <mxCell id="TtrFDmk4WdQ_fgC15SkU-1" style="edgeStyle=orthogonalEdgeStyle;rounded=0;orthogonalLoop=1;jettySize=auto;html=1;exitX=0.5;exitY=1;exitDx=0;exitDy=0;entryX=0.5;entryY=0;entryDx=0;entryDy=0;" parent="dR-Cl5TtgQKVtdTdkfRB-6" source="dR-Cl5TtgQKVtdTdkfRB-48" target="dR-Cl5TtgQKVtdTdkfRB-46" edge="1">
                    <mxGeometry relative="1" as="geometry"/>
                </mxCell>
                <mxCell id="dR-Cl5TtgQKVtdTdkfRB-48" value="&lt;div style=&quot;font-size: 9px;&quot;&gt;&lt;div style=&quot;font-size: 9px;&quot;&gt;&lt;div style=&quot;font-size: 9px;&quot;&gt;GOOGLE SHEETS&lt;/div&gt;&lt;div style=&quot;font-size: 9px;&quot;&gt;&amp;nbsp;[INTERNAL] ACN PEME Results Dashboard,&lt;/div&gt;&lt;div style=&quot;font-size: 9px;&quot;&gt;01 Reimbursement Endorsement from ACN tab&lt;/div&gt;&lt;div style=&quot;font-size: 9px;&quot;&gt;&lt;ul style=&quot;font-size: 9px;&quot;&gt;&lt;li style=&quot;text-align: left; font-size: 9px;&quot;&gt;Paste all&lt;/li&gt;&lt;/ul&gt;&lt;/div&gt;&lt;/div&gt;&lt;/div&gt;" style="rounded=0;whiteSpace=wrap;html=1;fontFamily=Helvetica;fontSize=9;spacing=0;" parent="dR-Cl5TtgQKVtdTdkfRB-6" vertex="1">
                    <mxGeometry x="1405.5" y="34.5" width="129" height="90" as="geometry"/>
                </mxCell>
                <mxCell id="dR-Cl5TtgQKVtdTdkfRB-49" value="&lt;div style=&quot;font-size: 9px;&quot;&gt;&lt;div style=&quot;font-size: 9px;&quot;&gt;&lt;div style=&quot;font-size: 9px;&quot;&gt;AIRTABLE&lt;/div&gt;&lt;div style=&quot;font-size: 9px;&quot;&gt;ACN PEME Results Database&lt;/div&gt;&lt;div style=&quot;font-size: 9px;&quot;&gt;&lt;ul style=&quot;font-size: 9px;&quot;&gt;&lt;li style=&quot;text-align: left; font-size: 9px;&quot;&gt;Check and tag reimbursement results manually&lt;/li&gt;&lt;/ul&gt;&lt;/div&gt;&lt;/div&gt;&lt;/div&gt;" style="rounded=0;whiteSpace=wrap;html=1;fontFamily=Helvetica;fontSize=9;spacing=0;" parent="dR-Cl5TtgQKVtdTdkfRB-6" vertex="1">
                    <mxGeometry x="1386.5" y="234.5" width="167" height="77" as="geometry"/>
                </mxCell>
                <mxCell id="-U7IyQH0r49yZ2UrgW1W-6" style="edgeStyle=orthogonalEdgeStyle;rounded=0;orthogonalLoop=1;jettySize=auto;html=1;exitX=0.5;exitY=0;exitDx=0;exitDy=0;entryX=0;entryY=0.5;entryDx=0;entryDy=0;" parent="dR-Cl5TtgQKVtdTdkfRB-6" source="-U7IyQH0r49yZ2UrgW1W-2" target="-U7IyQH0r49yZ2UrgW1W-4" edge="1">
                    <mxGeometry relative="1" as="geometry"/>
                </mxCell>
                <mxCell id="-U7IyQH0r49yZ2UrgW1W-7" style="edgeStyle=orthogonalEdgeStyle;rounded=0;orthogonalLoop=1;jettySize=auto;html=1;exitX=0.5;exitY=1;exitDx=0;exitDy=0;entryX=0;entryY=0.5;entryDx=0;entryDy=0;" parent="dR-Cl5TtgQKVtdTdkfRB-6" source="-U7IyQH0r49yZ2UrgW1W-2" target="dR-Cl5TtgQKVtdTdkfRB-44" edge="1">
                    <mxGeometry relative="1" as="geometry"/>
                </mxCell>
                <mxCell id="-U7IyQH0r49yZ2UrgW1W-2" value="&lt;p style=&quot;line-height: 50%;&quot;&gt;&lt;font style=&quot;font-size: 8px;&quot;&gt;Cleared?&lt;/font&gt;&lt;/p&gt;" style="rhombus;whiteSpace=wrap;html=1;align=center;" parent="dR-Cl5TtgQKVtdTdkfRB-6" vertex="1">
                    <mxGeometry x="721" y="174" width="48" height="47.5" as="geometry"/>
                </mxCell>
                <mxCell id="-U7IyQH0r49yZ2UrgW1W-4" value="&lt;div style=&quot;font-size: 9px;&quot;&gt;&lt;div style=&quot;font-size: 9px;&quot;&gt;&lt;div style=&quot;font-size: 9px;&quot;&gt;GOOGLE SHEETS&lt;/div&gt;&lt;div style=&quot;font-size: 9px;&quot;&gt;[INTERNAL] ACN PEME Results Dashboard&lt;/div&gt;&lt;div style=&quot;font-size: 9px;&quot;&gt;&lt;ul style=&quot;font-size: 9px;&quot;&gt;&lt;li style=&quot;text-align: left; font-size: 9px;&quot;&gt;Tag candidates based on guidelines&lt;/li&gt;&lt;/ul&gt;&lt;/div&gt;&lt;/div&gt;&lt;/div&gt;" style="rounded=0;whiteSpace=wrap;html=1;fontFamily=Helvetica;fontSize=9;spacing=0;" parent="dR-Cl5TtgQKVtdTdkfRB-6" vertex="1">
                    <mxGeometry x="785" y="86" width="142" height="83" as="geometry"/>
                </mxCell>
                <mxCell id="848i461dpi7bl0I6LvQV-1" value="Yes" style="text;html=1;strokeColor=none;fillColor=none;align=center;verticalAlign=middle;whiteSpace=wrap;rounded=0;fontSize=9;" parent="dR-Cl5TtgQKVtdTdkfRB-6" vertex="1">
                    <mxGeometry x="747" y="133" width="31" height="11.5" as="geometry"/>
                </mxCell>
                <mxCell id="848i461dpi7bl0I6LvQV-5" value="No" style="text;html=1;strokeColor=none;fillColor=none;align=center;verticalAlign=middle;whiteSpace=wrap;rounded=0;fontSize=9;" parent="dR-Cl5TtgQKVtdTdkfRB-6" vertex="1">
                    <mxGeometry x="750" y="251" width="19" height="11.5" as="geometry"/>
                </mxCell>
                <mxCell id="YfxdGKV5GeTj8PLtsTex-5" value="&lt;div style=&quot;font-size: 9px;&quot;&gt;&lt;div style=&quot;font-size: 9px;&quot;&gt;&lt;ul style=&quot;font-size: 9px;&quot;&gt;&lt;li style=&quot;font-size: 9px;&quot;&gt;MG sends applicant email to fill out PEME booking form&lt;/li&gt;&lt;/ul&gt;&lt;/div&gt;&lt;/div&gt;" style="rounded=0;whiteSpace=wrap;html=1;fontFamily=Helvetica;fontSize=9;spacing=0;align=left;" parent="dR-Cl5TtgQKVtdTdkfRB-6" vertex="1">
                    <mxGeometry x="1174.5" y="119" width="169" height="44" as="geometry"/>
                </mxCell>
                <mxCell id="YfxdGKV5GeTj8PLtsTex-10" style="edgeStyle=orthogonalEdgeStyle;rounded=0;orthogonalLoop=1;jettySize=auto;html=1;exitX=0;exitY=0.5;exitDx=0;exitDy=0;entryX=0.5;entryY=1;entryDx=0;entryDy=0;" parent="dR-Cl5TtgQKVtdTdkfRB-6" source="YfxdGKV5GeTj8PLtsTex-8" target="dR-Cl5TtgQKVtdTdkfRB-27" edge="1">
                    <mxGeometry relative="1" as="geometry"/>
                </mxCell>
                <mxCell id="YfxdGKV5GeTj8PLtsTex-13" style="edgeStyle=orthogonalEdgeStyle;rounded=0;orthogonalLoop=1;jettySize=auto;html=1;exitX=1;exitY=0.5;exitDx=0;exitDy=0;entryX=0.5;entryY=1;entryDx=0;entryDy=0;" parent="dR-Cl5TtgQKVtdTdkfRB-6" source="YfxdGKV5GeTj8PLtsTex-8" target="YfxdGKV5GeTj8PLtsTex-11" edge="1">
                    <mxGeometry relative="1" as="geometry"/>
                </mxCell>
                <mxCell id="YfxdGKV5GeTj8PLtsTex-8" value="&lt;p style=&quot;line-height: 50%;&quot;&gt;&lt;span style=&quot;text-align: left; font-size: 6px; background-color: initial;&quot;&gt;Specialist is verified?&lt;br&gt;Cleared for work?&lt;br&gt;Recommendations?&lt;/span&gt;&lt;/p&gt;" style="rhombus;whiteSpace=wrap;html=1;align=center;" parent="dR-Cl5TtgQKVtdTdkfRB-6" vertex="1">
                    <mxGeometry x="1022" y="151" width="89" height="93.5" as="geometry"/>
                </mxCell>
                <mxCell id="YfxdGKV5GeTj8PLtsTex-11" value="&lt;div style=&quot;font-size: 9px;&quot;&gt;&lt;div style=&quot;font-size: 9px;&quot;&gt;&lt;div style=&quot;font-size: 9px;&quot;&gt;Endorse to ACN&amp;nbsp;&lt;/div&gt;&lt;/div&gt;&lt;/div&gt;" style="rounded=0;whiteSpace=wrap;html=1;fontFamily=Helvetica;fontSize=9;spacing=0;" parent="dR-Cl5TtgQKVtdTdkfRB-6" vertex="1">
                    <mxGeometry x="1082" y="38" width="96" height="37" as="geometry"/>
                </mxCell>
                <mxCell id="YfxdGKV5GeTj8PLtsTex-14" value="Yes" style="text;html=1;strokeColor=none;fillColor=none;align=center;verticalAlign=middle;whiteSpace=wrap;rounded=0;fontSize=9;" parent="dR-Cl5TtgQKVtdTdkfRB-6" vertex="1">
                    <mxGeometry x="1000" y="201.5" width="22" height="11.5" as="geometry"/>
                </mxCell>
                <mxCell id="YfxdGKV5GeTj8PLtsTex-19" value="No" style="text;html=1;strokeColor=none;fillColor=none;align=center;verticalAlign=middle;whiteSpace=wrap;rounded=0;fontSize=9;" parent="dR-Cl5TtgQKVtdTdkfRB-6" vertex="1">
                    <mxGeometry x="1111" y="199" width="19" height="11.5" as="geometry"/>
                </mxCell>
                <mxCell id="dR-Cl5TtgQKVtdTdkfRB-51" value="Applicant" style="swimlane;startSize=20;horizontal=0;html=1;fillColor=#FFECA1;" parent="dR-Cl5TtgQKVtdTdkfRB-1" vertex="1">
                    <mxGeometry x="20" y="712" width="1577" height="124" as="geometry"/>
                </mxCell>
                <mxCell id="dR-Cl5TtgQKVtdTdkfRB-52" value="&lt;div style=&quot;font-size: 9px;&quot;&gt;&lt;div style=&quot;font-size: 9px;&quot;&gt;&lt;div style=&quot;font-size: 9px;&quot;&gt;WEBSITE&lt;/div&gt;&lt;div style=&quot;font-size: 9px;&quot;&gt;PEME Booking Form&lt;/div&gt;&lt;div style=&quot;font-size: 9px;&quot;&gt;&lt;ul style=&quot;font-size: 9px;&quot;&gt;&lt;li style=&quot;text-align: left; font-size: 9px;&quot;&gt;Filled by candidate&lt;/li&gt;&lt;li style=&quot;text-align: left; font-size: 9px;&quot;&gt;Contains Applicant Details and Booking Details&lt;/li&gt;&lt;/ul&gt;&lt;/div&gt;&lt;/div&gt;&lt;/div&gt;" style="rounded=0;whiteSpace=wrap;html=1;fontFamily=Helvetica;fontSize=9;spacing=0;" parent="dR-Cl5TtgQKVtdTdkfRB-51" vertex="1">
                    <mxGeometry x="619.5" y="26" width="166" height="82" as="geometry"/>
                </mxCell>
                <mxCell id="dR-Cl5TtgQKVtdTdkfRB-53" value="Provider" style="swimlane;startSize=20;horizontal=0;html=1;fillColor=#29BAB3;fontColor=#FFFFFF;" parent="dR-Cl5TtgQKVtdTdkfRB-1" vertex="1">
                    <mxGeometry x="20" y="836" width="1577" height="114" as="geometry"/>
                </mxCell>
                <mxCell id="dR-Cl5TtgQKVtdTdkfRB-54" value="&lt;div style=&quot;&quot;&gt;&lt;p style=&quot;font-size: 9px; --font-size: 10px; --line-height: 1.4; line-height: 14px;&quot; class=&quot;cvGsUA direction-ltr align-center para-style-body&quot;&gt;&lt;font style=&quot;font-size: 9px;&quot;&gt;HPD&lt;/font&gt;&lt;/p&gt;&lt;p style=&quot;--font-size: 10px; --line-height: 1.4; line-height: 14px;&quot; class=&quot;cvGsUA direction-ltr align-center para-style-body&quot;&gt;&lt;/p&gt;&lt;ul style=&quot;&quot;&gt;&lt;li style=&quot;text-align: left;&quot;&gt;&lt;font style=&quot;&quot;&gt;Candidate takes PEME in chosen branch&lt;br&gt;&lt;/font&gt;&lt;/li&gt;&lt;/ul&gt;&lt;p&gt;&lt;/p&gt;&lt;/div&gt;" style="rounded=0;whiteSpace=wrap;html=1;fontFamily=Helvetica;fontSize=9;spacing=0;" parent="dR-Cl5TtgQKVtdTdkfRB-53" vertex="1">
                    <mxGeometry x="46" y="21" width="154.75" height="55" as="geometry"/>
                </mxCell>
                <mxCell id="dR-Cl5TtgQKVtdTdkfRB-55" value="&lt;div style=&quot;font-size: 9px;&quot;&gt;&lt;div style=&quot;font-size: 9px;&quot;&gt;REIMBURSEMENTS&lt;/div&gt;&lt;div style=&quot;font-size: 9px;&quot;&gt;&lt;ul style=&quot;font-size: 9px;&quot;&gt;&lt;li style=&quot;text-align: left; font-size: 9px;&quot;&gt;Candidate takes PEME outside of ACN’s accredited providers&lt;/li&gt;&lt;/ul&gt;&lt;/div&gt;&lt;/div&gt;" style="rounded=0;whiteSpace=wrap;html=1;fontFamily=Helvetica;fontSize=9;spacing=0;" parent="dR-Cl5TtgQKVtdTdkfRB-53" vertex="1">
                    <mxGeometry x="1282" y="27" width="184" height="67" as="geometry"/>
                </mxCell>
                <mxCell id="dR-Cl5TtgQKVtdTdkfRB-56" style="edgeStyle=orthogonalEdgeStyle;rounded=0;orthogonalLoop=1;jettySize=auto;html=1;exitX=0.5;exitY=1;exitDx=0;exitDy=0;" parent="dR-Cl5TtgQKVtdTdkfRB-1" source="dR-Cl5TtgQKVtdTdkfRB-3" target="dR-Cl5TtgQKVtdTdkfRB-7" edge="1">
                    <mxGeometry relative="1" as="geometry"/>
                </mxCell>
                <mxCell id="dR-Cl5TtgQKVtdTdkfRB-57" style="edgeStyle=orthogonalEdgeStyle;rounded=0;orthogonalLoop=1;jettySize=auto;html=1;exitX=0.5;exitY=1;exitDx=0;exitDy=0;entryX=0.5;entryY=0;entryDx=0;entryDy=0;" parent="dR-Cl5TtgQKVtdTdkfRB-1" source="dR-Cl5TtgQKVtdTdkfRB-18" target="dR-Cl5TtgQKVtdTdkfRB-54" edge="1">
                    <mxGeometry relative="1" as="geometry"/>
                </mxCell>
                <mxCell id="dR-Cl5TtgQKVtdTdkfRB-58" style="edgeStyle=orthogonalEdgeStyle;rounded=0;orthogonalLoop=1;jettySize=auto;html=1;exitX=1;exitY=0.5;exitDx=0;exitDy=0;entryX=0.5;entryY=1;entryDx=0;entryDy=0;" parent="dR-Cl5TtgQKVtdTdkfRB-1" source="dR-Cl5TtgQKVtdTdkfRB-54" target="dR-Cl5TtgQKVtdTdkfRB-35" edge="1">
                    <mxGeometry relative="1" as="geometry"/>
                </mxCell>
                <mxCell id="dR-Cl5TtgQKVtdTdkfRB-63" style="edgeStyle=orthogonalEdgeStyle;rounded=0;orthogonalLoop=1;jettySize=auto;html=1;exitX=0.5;exitY=1;exitDx=0;exitDy=0;entryX=0.5;entryY=0;entryDx=0;entryDy=0;" parent="dR-Cl5TtgQKVtdTdkfRB-1" source="dR-Cl5TtgQKVtdTdkfRB-5" target="dR-Cl5TtgQKVtdTdkfRB-48" edge="1">
                    <mxGeometry relative="1" as="geometry"/>
                </mxCell>
                <mxCell id="YfxdGKV5GeTj8PLtsTex-6" style="edgeStyle=orthogonalEdgeStyle;rounded=0;orthogonalLoop=1;jettySize=auto;html=1;exitX=0.5;exitY=1;exitDx=0;exitDy=0;entryX=0.5;entryY=0;entryDx=0;entryDy=0;" parent="dR-Cl5TtgQKVtdTdkfRB-1" source="YfxdGKV5GeTj8PLtsTex-4" target="YfxdGKV5GeTj8PLtsTex-5" edge="1">
                    <mxGeometry relative="1" as="geometry"/>
                </mxCell>
                <mxCell id="dHQJDpZ_W1YzWfOjN2j3-2" style="edgeStyle=orthogonalEdgeStyle;rounded=0;orthogonalLoop=1;jettySize=auto;html=1;exitX=0.5;exitY=1;exitDx=0;exitDy=0;entryX=0.5;entryY=1;entryDx=0;entryDy=0;" parent="dR-Cl5TtgQKVtdTdkfRB-1" source="dR-Cl5TtgQKVtdTdkfRB-52" target="dR-Cl5TtgQKVtdTdkfRB-54" edge="1">
                    <mxGeometry relative="1" as="geometry"/>
                </mxCell>
                <mxCell id="qsNXKQ6q5SEpweLaxdVd-2" style="edgeStyle=orthogonalEdgeStyle;rounded=0;orthogonalLoop=1;jettySize=auto;html=1;exitX=1;exitY=0.5;exitDx=0;exitDy=0;entryX=1;entryY=0.5;entryDx=0;entryDy=0;" parent="dR-Cl5TtgQKVtdTdkfRB-1" source="YfxdGKV5GeTj8PLtsTex-5" target="dR-Cl5TtgQKVtdTdkfRB-52" edge="1">
                    <mxGeometry relative="1" as="geometry"/>
                </mxCell>
                <mxCell id="qsNXKQ6q5SEpweLaxdVd-3" style="edgeStyle=orthogonalEdgeStyle;rounded=0;orthogonalLoop=1;jettySize=auto;html=1;exitX=0.5;exitY=0;exitDx=0;exitDy=0;entryX=0;entryY=0.5;entryDx=0;entryDy=0;" parent="dR-Cl5TtgQKVtdTdkfRB-1" source="dR-Cl5TtgQKVtdTdkfRB-55" target="dR-Cl5TtgQKVtdTdkfRB-5" edge="1">
                    <mxGeometry relative="1" as="geometry">
                        <Array as="points">
                            <mxPoint x="1393" y="859"/>
                            <mxPoint x="1393" y="95"/>
                        </Array>
                    </mxGeometry>
                </mxCell>
            </root>
        </mxGraphModel>
    </diagram>
    <diagram id="tde9Jfu4bX_RBiMkdHqG" name="APE FINAL">
        <mxGraphModel dx="1060" dy="-888" grid="0" gridSize="10" guides="1" tooltips="1" connect="1" arrows="1" fold="1" page="1" pageScale="1" pageWidth="850" pageHeight="1400" math="0" shadow="0">
            <root>
                <mxCell id="0"/>
                <mxCell id="1" parent="0"/>
                <mxCell id="7kH19jSsPSLXdliiEi0x-1" value="APE" style="swimlane;childLayout=stackLayout;resizeParent=1;resizeParentMax=0;horizontal=0;startSize=20;horizontalStack=0;html=1;container=0;" parent="1" vertex="1">
                    <mxGeometry y="1403" width="851" height="909" as="geometry">
                        <mxRectangle x="15" y="2339" width="32" height="55" as="alternateBounds"/>
                    </mxGeometry>
                </mxCell>
                <mxCell id="7kH19jSsPSLXdliiEi0x-3" style="edgeStyle=orthogonalEdgeStyle;rounded=0;orthogonalLoop=1;jettySize=auto;html=1;exitX=1;exitY=0.75;exitDx=0;exitDy=0;entryX=0.5;entryY=1;entryDx=0;entryDy=0;" parent="1" source="7kH19jSsPSLXdliiEi0x-27" target="7kH19jSsPSLXdliiEi0x-2" edge="1">
                    <mxGeometry relative="1" as="geometry"/>
                </mxCell>
                <mxCell id="7kH19jSsPSLXdliiEi0x-4" value="&lt;font color=&quot;#ffffff&quot;&gt;ACN HR&lt;/font&gt;" style="swimlane;startSize=20;horizontal=0;html=1;container=0;labelBackgroundColor=none;fillColor=#C008FD;strokeColor=#9673a6;" parent="1" vertex="1">
                    <mxGeometry x="20" y="1403" width="831" height="116" as="geometry"/>
                </mxCell>
                <mxCell id="7kH19jSsPSLXdliiEi0x-5" value="&lt;div style=&quot;font-size: 9px;&quot;&gt;&lt;div style=&quot;font-size: 9px;&quot;&gt;&lt;div style=&quot;font-size: 9px;&quot;&gt;&lt;div&gt;EXCEL&lt;/div&gt;&lt;div&gt;&lt;ul&gt;&lt;li style=&quot;text-align: left;&quot;&gt;Retrieve weekly Employee Roster file via email (ACN HR → MG)&lt;/li&gt;&lt;/ul&gt;&lt;/div&gt;&lt;/div&gt;&lt;/div&gt;&lt;/div&gt;" style="rounded=0;whiteSpace=wrap;html=1;fontFamily=Helvetica;fontSize=9;spacing=0;" parent="7kH19jSsPSLXdliiEi0x-4" vertex="1">
                    <mxGeometry x="33.25" y="23" width="178" height="59" as="geometry"/>
                </mxCell>
                <mxCell id="7kH19jSsPSLXdliiEi0x-6" value="&lt;font color=&quot;#ffffff&quot;&gt;MedGrocer&lt;/font&gt;" style="swimlane;startSize=20;horizontal=0;html=1;container=0;fillColor=#0B6D6D;strokeColor=#82b366;fillStyle=auto;" parent="1" vertex="1">
                    <mxGeometry x="20" y="1519" width="831" height="474" as="geometry">
                        <mxRectangle x="20" y="120" width="460" height="26" as="alternateBounds"/>
                    </mxGeometry>
                </mxCell>
                <mxCell id="7kH19jSsPSLXdliiEi0x-7" value="&lt;div style=&quot;&quot;&gt;&lt;div style=&quot;&quot;&gt;&lt;div style=&quot;&quot;&gt;&lt;div style=&quot;&quot;&gt;EXCEL&lt;/div&gt;&lt;div style=&quot;&quot;&gt;Weekly Employee Roster file&amp;nbsp;&lt;/div&gt;&lt;div style=&quot;&quot;&gt;&lt;ul&gt;&lt;li style=&quot;text-align: left;&quot;&gt;Apply filters&lt;/li&gt;&lt;ul&gt;&lt;li style=&quot;text-align: left;&quot;&gt;retain roles that are not MD/SMD&lt;/li&gt;&lt;li style=&quot;text-align: left;&quot;&gt;retain tenures 335+ days&lt;/li&gt;&lt;li style=&quot;text-align: left;&quot;&gt;retain those who have bdays on the intended month of invitation&lt;/li&gt;&lt;/ul&gt;&lt;/ul&gt;&lt;/div&gt;&lt;/div&gt;&lt;/div&gt;&lt;/div&gt;" style="rounded=0;whiteSpace=wrap;html=1;fontFamily=Helvetica;fontSize=9;spacing=0;" parent="7kH19jSsPSLXdliiEi0x-6" vertex="1">
                    <mxGeometry x="30.75" y="17" width="183" height="128" as="geometry"/>
                </mxCell>
                <mxCell id="7kH19jSsPSLXdliiEi0x-9" value="&lt;div style=&quot;&quot;&gt;&lt;div style=&quot;&quot;&gt;&lt;div style=&quot;&quot;&gt;&lt;div style=&quot;&quot;&gt;GOOGLE SHEETS&lt;/div&gt;&lt;div style=&quot;&quot;&gt;APE Invitation Sheet&lt;/div&gt;&lt;div style=&quot;&quot;&gt;&lt;ul&gt;&lt;li style=&quot;text-align: left;&quot;&gt;Raw-Blast Audience&amp;nbsp; Database APE Invitation Sheet&lt;/li&gt;&lt;li style=&quot;text-align: left;&quot;&gt;Paste on columns requested only&lt;/li&gt;&lt;li style=&quot;text-align: left;&quot;&gt;Sort Tenure column ascending&lt;/li&gt;&lt;li style=&quot;text-align: left;&quot;&gt;Apply tags per batch&lt;/li&gt;&lt;/ul&gt;&lt;/div&gt;&lt;/div&gt;&lt;/div&gt;&lt;/div&gt;" style="rounded=0;whiteSpace=wrap;html=1;fontFamily=Helvetica;fontSize=9;spacing=0;" parent="7kH19jSsPSLXdliiEi0x-6" vertex="1">
                    <mxGeometry x="25.25" y="168" width="187.75" height="105" as="geometry"/>
                </mxCell>
                <mxCell id="7kH19jSsPSLXdliiEi0x-10" style="edgeStyle=orthogonalEdgeStyle;rounded=0;orthogonalLoop=1;jettySize=auto;html=1;exitX=0.5;exitY=1;exitDx=0;exitDy=0;entryX=0.5;entryY=0;entryDx=0;entryDy=0;" parent="7kH19jSsPSLXdliiEi0x-6" source="7kH19jSsPSLXdliiEi0x-7" target="7kH19jSsPSLXdliiEi0x-9" edge="1">
                    <mxGeometry relative="1" as="geometry"/>
                </mxCell>
                <mxCell id="7kH19jSsPSLXdliiEi0x-11" value="&lt;div style=&quot;&quot;&gt;&lt;div style=&quot;&quot;&gt;&lt;div style=&quot;&quot;&gt;&lt;div style=&quot;&quot;&gt;&lt;div&gt;AIRTABLE&lt;/div&gt;&lt;div&gt;APE Valid Employees&lt;/div&gt;&lt;div&gt;&lt;ul&gt;&lt;li style=&quot;text-align: left;&quot;&gt;Contains valid employees eligible for APE&lt;/li&gt;&lt;/ul&gt;&lt;/div&gt;&lt;/div&gt;&lt;/div&gt;&lt;/div&gt;&lt;/div&gt;" style="rounded=0;whiteSpace=wrap;html=1;fontFamily=Helvetica;fontSize=9;spacing=0;" parent="7kH19jSsPSLXdliiEi0x-6" vertex="1">
                    <mxGeometry x="33.5" y="294" width="154.5" height="68" as="geometry"/>
                </mxCell>
                <mxCell id="7kH19jSsPSLXdliiEi0x-12" style="edgeStyle=orthogonalEdgeStyle;rounded=0;orthogonalLoop=1;jettySize=auto;html=1;exitX=0.5;exitY=1;exitDx=0;exitDy=0;entryX=0.5;entryY=0;entryDx=0;entryDy=0;" parent="7kH19jSsPSLXdliiEi0x-6" source="7kH19jSsPSLXdliiEi0x-9" target="7kH19jSsPSLXdliiEi0x-11" edge="1">
                    <mxGeometry relative="1" as="geometry"/>
                </mxCell>
                <mxCell id="7kH19jSsPSLXdliiEi0x-13" value="&lt;div style=&quot;&quot;&gt;&lt;div style=&quot;&quot;&gt;&lt;div style=&quot;&quot;&gt;&lt;div style=&quot;&quot;&gt;&lt;div&gt;MAILCHIMP&lt;/div&gt;&lt;div&gt;&lt;ul&gt;&lt;li style=&quot;text-align: left;&quot;&gt;Schedule send APE Booking Invites per batch by start of the month&lt;/li&gt;&lt;/ul&gt;&lt;/div&gt;&lt;/div&gt;&lt;/div&gt;&lt;/div&gt;&lt;/div&gt;" style="rounded=0;whiteSpace=wrap;html=1;fontFamily=Helvetica;fontSize=9;spacing=0;" parent="7kH19jSsPSLXdliiEi0x-6" vertex="1">
                    <mxGeometry x="37.25" y="383" width="170" height="71" as="geometry"/>
                </mxCell>
                <mxCell id="7kH19jSsPSLXdliiEi0x-14" style="edgeStyle=orthogonalEdgeStyle;rounded=0;orthogonalLoop=1;jettySize=auto;html=1;exitX=0.5;exitY=1;exitDx=0;exitDy=0;entryX=0.5;entryY=0;entryDx=0;entryDy=0;" parent="7kH19jSsPSLXdliiEi0x-6" source="7kH19jSsPSLXdliiEi0x-11" target="7kH19jSsPSLXdliiEi0x-13" edge="1">
                    <mxGeometry relative="1" as="geometry"/>
                </mxCell>
                <mxCell id="legxNa1Pwt2qhmP_qZ8p-5" style="edgeStyle=orthogonalEdgeStyle;rounded=0;orthogonalLoop=1;jettySize=auto;html=1;exitX=0.5;exitY=0;exitDx=0;exitDy=0;entryX=0.5;entryY=1;entryDx=0;entryDy=0;" parent="7kH19jSsPSLXdliiEi0x-6" source="7kH19jSsPSLXdliiEi0x-16" target="legxNa1Pwt2qhmP_qZ8p-2" edge="1">
                    <mxGeometry relative="1" as="geometry"/>
                </mxCell>
                <mxCell id="7kH19jSsPSLXdliiEi0x-16" value="&lt;div style=&quot;&quot;&gt;&lt;div style=&quot;&quot;&gt;&lt;div style=&quot;&quot;&gt;&lt;div style=&quot;&quot;&gt;&lt;div&gt;AIRTABLE&lt;/div&gt;&lt;div&gt;[DEV] ACN APE BCP, Request View&lt;/div&gt;&lt;div&gt;&lt;ul&gt;&lt;li style=&quot;text-align: left;&quot;&gt;All Reschedule Requests are seen here&lt;/li&gt;&lt;/ul&gt;&lt;/div&gt;&lt;/div&gt;&lt;/div&gt;&lt;/div&gt;&lt;/div&gt;" style="rounded=0;whiteSpace=wrap;html=1;fontFamily=Helvetica;fontSize=9;spacing=0;" parent="7kH19jSsPSLXdliiEi0x-6" vertex="1">
                    <mxGeometry x="352" y="310" width="168" height="81" as="geometry"/>
                </mxCell>
                <mxCell id="7kH19jSsPSLXdliiEi0x-17" value="&lt;div style=&quot;&quot;&gt;&lt;div style=&quot;&quot;&gt;&lt;div style=&quot;&quot;&gt;&lt;div style=&quot;&quot;&gt;&lt;div&gt;APE Results Analyzer&lt;/div&gt;&lt;div&gt;&lt;ul&gt;&lt;li style=&quot;text-align: left;&quot;&gt;Analyze patient results by linking health profile and employee roster&lt;/li&gt;&lt;li style=&quot;text-align: left;&quot;&gt;Based from analysis, MG can offer services&lt;/li&gt;&lt;/ul&gt;&lt;/div&gt;&lt;/div&gt;&lt;/div&gt;&lt;/div&gt;&lt;/div&gt;" style="rounded=0;whiteSpace=wrap;html=1;fontFamily=Helvetica;fontSize=9;spacing=0;" parent="7kH19jSsPSLXdliiEi0x-6" vertex="1">
                    <mxGeometry x="658" y="178" width="163" height="87" as="geometry"/>
                </mxCell>
                <mxCell id="7kH19jSsPSLXdliiEi0x-18" value="&lt;div style=&quot;&quot;&gt;&lt;div style=&quot;&quot;&gt;&lt;div style=&quot;&quot;&gt;&lt;div style=&quot;&quot;&gt;&lt;ul&gt;&lt;li&gt;&lt;span style=&quot;background-color: initial;&quot;&gt;APE is interpreted by company clinics either onsite or teleconsultation&lt;/span&gt;&lt;/li&gt;&lt;/ul&gt;&lt;/div&gt;&lt;/div&gt;&lt;/div&gt;&lt;/div&gt;" style="rounded=0;whiteSpace=wrap;html=1;fontFamily=Helvetica;fontSize=9;spacing=0;align=left;" parent="7kH19jSsPSLXdliiEi0x-6" vertex="1">
                    <mxGeometry x="662" y="287" width="150" height="53" as="geometry"/>
                </mxCell>
                <mxCell id="7kH19jSsPSLXdliiEi0x-19" style="edgeStyle=orthogonalEdgeStyle;rounded=0;orthogonalLoop=1;jettySize=auto;html=1;exitX=0.5;exitY=0;exitDx=0;exitDy=0;entryX=0.5;entryY=1;entryDx=0;entryDy=0;" parent="7kH19jSsPSLXdliiEi0x-6" source="7kH19jSsPSLXdliiEi0x-18" target="7kH19jSsPSLXdliiEi0x-17" edge="1">
                    <mxGeometry relative="1" as="geometry"/>
                </mxCell>
                <mxCell id="7kH19jSsPSLXdliiEi0x-21" value="&lt;div style=&quot;&quot;&gt;&lt;div style=&quot;&quot;&gt;&lt;div style=&quot;&quot;&gt;&lt;div style=&quot;&quot;&gt;&lt;div&gt;EXCEL&lt;/div&gt;&lt;div&gt;&lt;ul&gt;&lt;li style=&quot;text-align: left;&quot;&gt;Summary consolidated results of patients via email&amp;nbsp; (ACN → MG)&lt;/li&gt;&lt;/ul&gt;&lt;/div&gt;&lt;/div&gt;&lt;/div&gt;&lt;/div&gt;&lt;/div&gt;" style="rounded=0;whiteSpace=wrap;html=1;fontFamily=Helvetica;fontSize=9;spacing=0;" parent="7kH19jSsPSLXdliiEi0x-6" vertex="1">
                    <mxGeometry x="673.5" y="362" width="127" height="82" as="geometry"/>
                </mxCell>
                <mxCell id="7kH19jSsPSLXdliiEi0x-22" style="edgeStyle=orthogonalEdgeStyle;rounded=0;orthogonalLoop=1;jettySize=auto;html=1;exitX=0.5;exitY=0;exitDx=0;exitDy=0;entryX=0.5;entryY=1;entryDx=0;entryDy=0;" parent="7kH19jSsPSLXdliiEi0x-6" source="7kH19jSsPSLXdliiEi0x-21" target="7kH19jSsPSLXdliiEi0x-18" edge="1">
                    <mxGeometry relative="1" as="geometry"/>
                </mxCell>
                <mxCell id="legxNa1Pwt2qhmP_qZ8p-27" style="edgeStyle=orthogonalEdgeStyle;rounded=0;orthogonalLoop=1;jettySize=auto;html=1;exitX=1;exitY=0.5;exitDx=0;exitDy=0;entryX=0;entryY=0.5;entryDx=0;entryDy=0;" parent="7kH19jSsPSLXdliiEi0x-6" source="legxNa1Pwt2qhmP_qZ8p-2" target="legxNa1Pwt2qhmP_qZ8p-6" edge="1">
                    <mxGeometry relative="1" as="geometry"/>
                </mxCell>
                <mxCell id="legxNa1Pwt2qhmP_qZ8p-28" style="edgeStyle=orthogonalEdgeStyle;rounded=0;orthogonalLoop=1;jettySize=auto;html=1;exitX=0;exitY=0.5;exitDx=0;exitDy=0;entryX=1;entryY=0.5;entryDx=0;entryDy=0;" parent="7kH19jSsPSLXdliiEi0x-6" source="legxNa1Pwt2qhmP_qZ8p-2" target="legxNa1Pwt2qhmP_qZ8p-26" edge="1">
                    <mxGeometry relative="1" as="geometry"/>
                </mxCell>
                <mxCell id="legxNa1Pwt2qhmP_qZ8p-2" value="&lt;p style=&quot;line-height: 50%;&quot;&gt;&lt;font style=&quot;font-size: 8px;&quot;&gt;Is valid?&lt;/font&gt;&lt;/p&gt;" style="rhombus;whiteSpace=wrap;html=1;align=center;" parent="7kH19jSsPSLXdliiEi0x-6" vertex="1">
                    <mxGeometry x="412.5" y="196.75" width="48" height="47.5" as="geometry"/>
                </mxCell>
                <mxCell id="legxNa1Pwt2qhmP_qZ8p-57" style="edgeStyle=orthogonalEdgeStyle;rounded=0;orthogonalLoop=1;jettySize=auto;html=1;exitX=0.5;exitY=0;exitDx=0;exitDy=0;entryX=1;entryY=0.5;entryDx=0;entryDy=0;" parent="7kH19jSsPSLXdliiEi0x-6" source="legxNa1Pwt2qhmP_qZ8p-6" target="legxNa1Pwt2qhmP_qZ8p-56" edge="1">
                    <mxGeometry relative="1" as="geometry"/>
                </mxCell>
                <mxCell id="legxNa1Pwt2qhmP_qZ8p-6" value="&lt;div style=&quot;&quot;&gt;&lt;div style=&quot;&quot;&gt;&lt;div style=&quot;&quot;&gt;&lt;div style=&quot;&quot;&gt;&lt;div&gt;HPD LOA DASHBOARD&lt;/div&gt;&lt;div&gt;Online Endorsement&lt;/div&gt;&lt;div&gt;&lt;ul&gt;&lt;li style=&quot;text-align: left;&quot;&gt;If appointment date requested &amp;lt; 3 working days from the date of request, don’t grant request. Tag as “Void”&lt;/li&gt;&lt;li style=&quot;text-align: left;&quot;&gt;If request can’t be resolved, tag as “For confirmation of other details”&lt;/li&gt;&lt;li style=&quot;border-color: var(--border-color); text-align: left;&quot;&gt;Apply appropriate edits&lt;/li&gt;&lt;/ul&gt;&lt;/div&gt;&lt;/div&gt;&lt;/div&gt;&lt;/div&gt;&lt;/div&gt;" style="rounded=0;whiteSpace=wrap;html=1;fontFamily=Helvetica;fontSize=9;spacing=0;" parent="7kH19jSsPSLXdliiEi0x-6" vertex="1">
                    <mxGeometry x="501.5" y="140" width="140" height="161" as="geometry"/>
                </mxCell>
                <mxCell id="legxNa1Pwt2qhmP_qZ8p-58" style="edgeStyle=orthogonalEdgeStyle;rounded=0;orthogonalLoop=1;jettySize=auto;html=1;exitX=0.5;exitY=0;exitDx=0;exitDy=0;entryX=0;entryY=0.5;entryDx=0;entryDy=0;" parent="7kH19jSsPSLXdliiEi0x-6" source="legxNa1Pwt2qhmP_qZ8p-26" target="legxNa1Pwt2qhmP_qZ8p-56" edge="1">
                    <mxGeometry relative="1" as="geometry"/>
                </mxCell>
                <mxCell id="legxNa1Pwt2qhmP_qZ8p-26" value="&lt;div style=&quot;&quot;&gt;&lt;div style=&quot;&quot;&gt;&lt;div style=&quot;&quot;&gt;&lt;div style=&quot;&quot;&gt;&lt;div&gt;HPD LOA DASHBOARD&lt;/div&gt;&lt;div&gt;Online Endorsement&lt;/div&gt;&lt;div&gt;&lt;ul&gt;&lt;li style=&quot;text-align: left;&quot;&gt;&lt;span style=&quot;background-color: initial;&quot;&gt;If appointment date requested &amp;gt; 3 working days from the date of request, cater to the request. Tag as “Rescheduled Already”&lt;/span&gt;&lt;br&gt;&lt;/li&gt;&lt;li style=&quot;text-align: left;&quot;&gt;If request is change of branch, cater to the request. Tag as “Rescheduled Already”&lt;/li&gt;&lt;li style=&quot;text-align: left;&quot;&gt;Apply appropriate edits&lt;/li&gt;&lt;/ul&gt;&lt;/div&gt;&lt;/div&gt;&lt;/div&gt;&lt;/div&gt;&lt;/div&gt;" style="rounded=0;whiteSpace=wrap;html=1;fontFamily=Helvetica;fontSize=9;spacing=0;" parent="7kH19jSsPSLXdliiEi0x-6" vertex="1">
                    <mxGeometry x="230.5" y="138.5" width="144" height="164" as="geometry"/>
                </mxCell>
                <mxCell id="legxNa1Pwt2qhmP_qZ8p-56" value="&lt;div style=&quot;&quot;&gt;&lt;div style=&quot;&quot;&gt;&lt;div style=&quot;&quot;&gt;&lt;div style=&quot;&quot;&gt;&lt;div&gt;AIRTABLE&lt;/div&gt;&lt;div&gt;[DEV] ACN APE BCP&lt;/div&gt;&lt;div&gt;&lt;ul&gt;&lt;li style=&quot;text-align: left;&quot;&gt;Update Status&lt;/li&gt;&lt;li style=&quot;text-align: left;&quot;&gt;After clearing all requests, send email notification&lt;/li&gt;&lt;/ul&gt;&lt;/div&gt;&lt;/div&gt;&lt;/div&gt;&lt;/div&gt;&lt;/div&gt;" style="rounded=0;whiteSpace=wrap;html=1;fontFamily=Helvetica;fontSize=9;spacing=0;" parent="7kH19jSsPSLXdliiEi0x-6" vertex="1">
                    <mxGeometry x="348" y="11.5" width="176" height="84" as="geometry"/>
                </mxCell>
                <mxCell id="legxNa1Pwt2qhmP_qZ8p-59" value="Yes" style="text;html=1;strokeColor=none;fillColor=none;align=center;verticalAlign=middle;whiteSpace=wrap;rounded=0;fontSize=9;" parent="7kH19jSsPSLXdliiEi0x-6" vertex="1">
                    <mxGeometry x="379.5" y="196.75" width="46" height="22" as="geometry"/>
                </mxCell>
                <mxCell id="legxNa1Pwt2qhmP_qZ8p-62" value="No" style="text;html=1;strokeColor=none;fillColor=none;align=center;verticalAlign=middle;whiteSpace=wrap;rounded=0;fontSize=9;" parent="7kH19jSsPSLXdliiEi0x-6" vertex="1">
                    <mxGeometry x="453.5" y="196.75" width="46" height="22" as="geometry"/>
                </mxCell>
                <mxCell id="7kH19jSsPSLXdliiEi0x-23" value="Applicant&lt;br&gt;" style="swimlane;startSize=20;horizontal=0;html=1;container=0;fillColor=#FFECA1;strokeColor=#d6b656;" parent="1" vertex="1">
                    <mxGeometry x="20" y="1993" width="831" height="202" as="geometry"/>
                </mxCell>
                <mxCell id="7kH19jSsPSLXdliiEi0x-24" value="&lt;div style=&quot;&quot;&gt;&lt;div style=&quot;&quot;&gt;&lt;div style=&quot;&quot;&gt;&lt;div style=&quot;&quot;&gt;&lt;div&gt;AIRTABLE&lt;/div&gt;&lt;div&gt;Reschedule Request Form&lt;/div&gt;&lt;div&gt;&lt;ul&gt;&lt;li style=&quot;text-align: left;&quot;&gt;Linked in the invite&lt;/li&gt;&lt;li style=&quot;text-align: left;&quot;&gt;Candidate fills out requested rescheduled APE date and time, and/or branch&lt;/li&gt;&lt;/ul&gt;&lt;/div&gt;&lt;/div&gt;&lt;/div&gt;&lt;/div&gt;&lt;/div&gt;" style="rounded=0;whiteSpace=wrap;html=1;fontFamily=Helvetica;fontSize=9;spacing=0;" parent="7kH19jSsPSLXdliiEi0x-23" vertex="1">
                    <mxGeometry x="51" y="96.25" width="161.25" height="92.5" as="geometry"/>
                </mxCell>
                <mxCell id="Iw4Dtfp60cMp1xWRb5Um-3" style="edgeStyle=orthogonalEdgeStyle;rounded=0;orthogonalLoop=1;jettySize=auto;html=1;exitX=0.5;exitY=1;exitDx=0;exitDy=0;entryX=0.5;entryY=0;entryDx=0;entryDy=0;" parent="7kH19jSsPSLXdliiEi0x-23" source="7kH19jSsPSLXdliiEi0x-25" target="hSvnUB3GBZyZHq1uHS-b-4" edge="1">
                    <mxGeometry relative="1" as="geometry"/>
                </mxCell>
                <mxCell id="7kH19jSsPSLXdliiEi0x-25" value="&lt;div style=&quot;&quot;&gt;&lt;div style=&quot;&quot;&gt;&lt;div style=&quot;&quot;&gt;&lt;div style=&quot;&quot;&gt;&lt;div&gt;WEBSITE&lt;/div&gt;&lt;div&gt;APE Booking Form&lt;/div&gt;&lt;div&gt;&lt;ul&gt;&lt;li style=&quot;text-align: left;&quot;&gt;Candidate fills out Employee and Booking details&lt;/li&gt;&lt;/ul&gt;&lt;/div&gt;&lt;/div&gt;&lt;/div&gt;&lt;/div&gt;&lt;/div&gt;" style="rounded=0;whiteSpace=wrap;html=1;fontFamily=Helvetica;fontSize=9;spacing=0;" parent="7kH19jSsPSLXdliiEi0x-23" vertex="1">
                    <mxGeometry x="230.75" y="13.25" width="156.25" height="74" as="geometry"/>
                </mxCell>
                <mxCell id="7kH19jSsPSLXdliiEi0x-2" value="&lt;div style=&quot;&quot;&gt;&lt;div style=&quot;&quot;&gt;&lt;div style=&quot;&quot;&gt;&lt;div style=&quot;&quot;&gt;&lt;div&gt;HPD APE ONLINE RESULTS PORTAL&lt;/div&gt;&lt;div&gt;&lt;ul&gt;&lt;li style=&quot;text-align: left;&quot;&gt;Results release for patients using their login credentials in their receipt&lt;/li&gt;&lt;li style=&quot;text-align: left;&quot;&gt;If receipt is lost, send credentials via Zendesk&lt;/li&gt;&lt;/ul&gt;&lt;/div&gt;&lt;/div&gt;&lt;/div&gt;&lt;/div&gt;&lt;/div&gt;" style="rounded=0;whiteSpace=wrap;html=1;fontFamily=Helvetica;fontSize=9;spacing=0;" parent="7kH19jSsPSLXdliiEi0x-23" vertex="1">
                    <mxGeometry x="613" y="70" width="146" height="100" as="geometry"/>
                </mxCell>
                <mxCell id="CQq-UT_W80OyaXNyi--e-1" style="edgeStyle=orthogonalEdgeStyle;rounded=0;orthogonalLoop=1;jettySize=auto;html=1;exitX=0;exitY=0.5;exitDx=0;exitDy=0;entryX=1;entryY=0.5;entryDx=0;entryDy=0;" parent="7kH19jSsPSLXdliiEi0x-23" source="hSvnUB3GBZyZHq1uHS-b-4" target="7kH19jSsPSLXdliiEi0x-24" edge="1">
                    <mxGeometry relative="1" as="geometry"/>
                </mxCell>
                <mxCell id="CQq-UT_W80OyaXNyi--e-3" value="" style="edgeStyle=orthogonalEdgeStyle;rounded=0;orthogonalLoop=1;jettySize=auto;html=1;" parent="7kH19jSsPSLXdliiEi0x-23" source="hSvnUB3GBZyZHq1uHS-b-4" target="7kH19jSsPSLXdliiEi0x-24" edge="1">
                    <mxGeometry relative="1" as="geometry"/>
                </mxCell>
                <mxCell id="hSvnUB3GBZyZHq1uHS-b-4" value="&lt;p style=&quot;line-height: 50%;&quot;&gt;&lt;font style=&quot;font-size: 6px;&quot;&gt;Need &lt;br&gt;Resched?&lt;/font&gt;&lt;/p&gt;" style="rhombus;whiteSpace=wrap;html=1;align=center;" parent="7kH19jSsPSLXdliiEi0x-23" vertex="1">
                    <mxGeometry x="289" y="118.75" width="48" height="47.5" as="geometry"/>
                </mxCell>
                <mxCell id="legxNa1Pwt2qhmP_qZ8p-65" value="Yes" style="text;html=1;strokeColor=none;fillColor=none;align=center;verticalAlign=middle;whiteSpace=wrap;rounded=0;fontSize=9;" parent="7kH19jSsPSLXdliiEi0x-23" vertex="1">
                    <mxGeometry x="243" y="126.25" width="22" height="13" as="geometry"/>
                </mxCell>
                <mxCell id="legxNa1Pwt2qhmP_qZ8p-66" value="No" style="text;html=1;strokeColor=none;fillColor=none;align=center;verticalAlign=middle;whiteSpace=wrap;rounded=0;fontSize=9;" parent="7kH19jSsPSLXdliiEi0x-23" vertex="1">
                    <mxGeometry x="345" y="125" width="17" height="14.25" as="geometry"/>
                </mxCell>
                <mxCell id="7kH19jSsPSLXdliiEi0x-26" value="Provider&lt;br&gt;" style="swimlane;startSize=20;horizontal=0;html=1;container=0;fillColor=#29BAB3;strokeColor=#82b366;fontColor=#FFFFFF;" parent="1" vertex="1">
                    <mxGeometry x="20" y="2195" width="831" height="117" as="geometry"/>
                </mxCell>
                <mxCell id="7kH19jSsPSLXdliiEi0x-27" value="&lt;div style=&quot;&quot;&gt;&lt;div style=&quot;&quot;&gt;&lt;div style=&quot;&quot;&gt;&lt;div style=&quot;&quot;&gt;&lt;div&gt;HPD&amp;nbsp;&lt;/div&gt;&lt;div&gt;&lt;ul&gt;&lt;li style=&quot;text-align: left;&quot;&gt;Candidate takes APE in chosen branch&lt;/li&gt;&lt;/ul&gt;&lt;/div&gt;&lt;/div&gt;&lt;/div&gt;&lt;/div&gt;&lt;/div&gt;" style="rounded=0;whiteSpace=wrap;html=1;fontFamily=Helvetica;fontSize=9;spacing=0;" parent="7kH19jSsPSLXdliiEi0x-26" vertex="1">
                    <mxGeometry x="41.5" y="27" width="172.25" height="63" as="geometry"/>
                </mxCell>
                <mxCell id="7kH19jSsPSLXdliiEi0x-28" style="edgeStyle=orthogonalEdgeStyle;rounded=0;orthogonalLoop=1;jettySize=auto;html=1;exitX=0.5;exitY=1;exitDx=0;exitDy=0;" parent="1" source="7kH19jSsPSLXdliiEi0x-5" target="7kH19jSsPSLXdliiEi0x-7" edge="1">
                    <mxGeometry relative="1" as="geometry"/>
                </mxCell>
                <mxCell id="TaUuHDBiygarZqC3aOEU-2" style="edgeStyle=orthogonalEdgeStyle;rounded=0;orthogonalLoop=1;jettySize=auto;html=1;exitX=0.5;exitY=1;exitDx=0;exitDy=0;entryX=1;entryY=0.5;entryDx=0;entryDy=0;" parent="1" source="7kH19jSsPSLXdliiEi0x-27" target="7kH19jSsPSLXdliiEi0x-21" edge="1">
                    <mxGeometry relative="1" as="geometry">
                        <Array as="points">
                            <mxPoint x="148" y="2293"/>
                            <mxPoint x="833" y="2293"/>
                            <mxPoint x="833" y="1922"/>
                        </Array>
                    </mxGeometry>
                </mxCell>
                <mxCell id="legxNa1Pwt2qhmP_qZ8p-31" style="edgeStyle=orthogonalEdgeStyle;rounded=0;orthogonalLoop=1;jettySize=auto;html=1;exitX=0.5;exitY=1;exitDx=0;exitDy=0;entryX=0.5;entryY=0;entryDx=0;entryDy=0;" parent="1" source="7kH19jSsPSLXdliiEi0x-13" target="7kH19jSsPSLXdliiEi0x-25" edge="1">
                    <mxGeometry relative="1" as="geometry">
                        <Array as="points">
                            <mxPoint x="142" y="2000"/>
                            <mxPoint x="329" y="2000"/>
                        </Array>
                    </mxGeometry>
                </mxCell>
                <mxCell id="T1D5Zh6ToE6pmzZjAVWJ-3" style="edgeStyle=orthogonalEdgeStyle;rounded=0;orthogonalLoop=1;jettySize=auto;html=1;exitX=0.5;exitY=1;exitDx=0;exitDy=0;entryX=0.5;entryY=1;entryDx=0;entryDy=0;" parent="1" source="7kH19jSsPSLXdliiEi0x-24" target="7kH19jSsPSLXdliiEi0x-16" edge="1">
                    <mxGeometry relative="1" as="geometry"/>
                </mxCell>
                <mxCell id="T1D5Zh6ToE6pmzZjAVWJ-4" style="edgeStyle=orthogonalEdgeStyle;rounded=0;orthogonalLoop=1;jettySize=auto;html=1;exitX=0.5;exitY=1;exitDx=0;exitDy=0;entryX=0;entryY=0.5;entryDx=0;entryDy=0;" parent="1" source="legxNa1Pwt2qhmP_qZ8p-26" target="7kH19jSsPSLXdliiEi0x-27" edge="1">
                    <mxGeometry relative="1" as="geometry">
                        <Array as="points">
                            <mxPoint x="323" y="1986"/>
                            <mxPoint x="53" y="1986"/>
                            <mxPoint x="53" y="2253"/>
                        </Array>
                    </mxGeometry>
                </mxCell>
                <mxCell id="CQq-UT_W80OyaXNyi--e-2" style="edgeStyle=orthogonalEdgeStyle;rounded=0;orthogonalLoop=1;jettySize=auto;html=1;exitX=1;exitY=0.5;exitDx=0;exitDy=0;entryX=1;entryY=0.25;entryDx=0;entryDy=0;" parent="1" source="hSvnUB3GBZyZHq1uHS-b-4" target="7kH19jSsPSLXdliiEi0x-27" edge="1">
                    <mxGeometry relative="1" as="geometry">
                        <Array as="points">
                            <mxPoint x="394" y="2135"/>
                            <mxPoint x="394" y="2238"/>
                        </Array>
                    </mxGeometry>
                </mxCell>
            </root>
        </mxGraphModel>
    </diagram>
</mxfile>